<svg width="173" height="70" viewBox="0 0 173 70" fill="none" xmlns="http://www.w3.org/2000/svg">
<path d="M56.2543 1.46891V24H50.7659V10.4878L45.7269 24H41.2977L36.2266 10.4557V24H30.7383V1.46891H37.2216L43.5444 17.0674L49.803 1.46891H56.2543ZM77.0833 14.7565C77.0833 15.27 77.0512 15.8049 76.987 16.3613H64.566C64.6516 17.4739 65.0046 18.3298 65.6252 18.9289C66.2671 19.5066 67.0481 19.7955 67.9681 19.7955C69.3375 19.7955 70.2897 19.2178 70.8246 18.0623H76.666C76.3665 19.2392 75.8209 20.2983 75.0292 21.2398C74.2589 22.1813 73.2853 22.9194 72.1085 23.4544C70.9316 23.9893 69.6157 24.2568 68.1607 24.2568C66.4062 24.2568 64.8442 23.8823 63.4748 23.1334C62.1053 22.3845 61.0355 21.3147 60.2652 19.9239C59.4949 18.5331 59.1098 16.9069 59.1098 15.0453C59.1098 13.1838 59.4842 11.5576 60.2331 10.1668C61.0034 8.776 62.0732 7.70615 63.4427 6.95725C64.8121 6.20835 66.3848 5.8339 68.1607 5.8339C69.8939 5.8339 71.4345 6.19765 72.7825 6.92515C74.1305 7.65265 75.1789 8.69041 75.9278 10.0384C76.6981 11.3864 77.0833 12.9591 77.0833 14.7565ZM71.4666 13.3122C71.4666 12.3707 71.1456 11.6218 70.5037 11.0655C69.8618 10.5092 69.0594 10.231 68.0965 10.231C67.1764 10.231 66.3955 10.4985 65.7535 11.0334C65.133 11.5683 64.7479 12.3279 64.5981 13.3122H71.4666ZM85.467 0.249275V24H79.9787V0.249275H85.467ZM100.453 5.8981C102.507 5.8981 104.155 6.5828 105.396 7.95221C106.637 9.30023 107.257 11.1618 107.257 13.5368V24H101.801V14.275C101.801 13.0768 101.491 12.146 100.87 11.4827C100.25 10.8194 99.4154 10.4878 98.3669 10.4878C97.3185 10.4878 96.484 10.8194 95.8635 11.4827C95.2429 12.146 94.9327 13.0768 94.9327 14.275V24H89.4443V0.249275H94.9327V8.49784C95.489 7.70615 96.2486 7.07493 97.2115 6.6042C98.1743 6.13346 99.2549 5.8981 100.453 5.8981ZM119.224 24.2568C117.469 24.2568 115.886 23.8823 114.473 23.1334C113.083 22.3845 111.981 21.3147 111.168 19.9239C110.376 18.5331 109.98 16.9069 109.98 15.0453C109.98 13.2052 110.387 11.5897 111.2 10.1989C112.013 8.7867 113.125 7.70615 114.538 6.95725C115.95 6.20835 117.533 5.8339 119.288 5.8339C121.042 5.8339 122.626 6.20835 124.038 6.95725C125.45 7.70615 126.563 8.7867 127.376 10.1989C128.189 11.5897 128.595 13.2052 128.595 15.0453C128.595 16.8855 128.178 18.5117 127.344 19.9239C126.531 21.3147 125.407 22.3845 123.974 23.1334C122.561 23.8823 120.978 24.2568 119.224 24.2568ZM119.224 19.5066C120.272 19.5066 121.16 19.1215 121.887 18.3512C122.636 17.5809 123.011 16.4789 123.011 15.0453C123.011 13.6117 122.647 12.5098 121.92 11.7395C121.213 10.9692 120.336 10.584 119.288 10.584C118.218 10.584 117.33 10.9692 116.624 11.7395C115.918 12.4884 115.565 13.5903 115.565 15.0453C115.565 16.4789 115.907 17.5809 116.592 18.3512C117.298 19.1215 118.175 19.5066 119.224 19.5066ZM136.995 9.07556C137.637 8.09129 138.44 7.321 139.403 6.76468C140.365 6.18696 141.435 5.8981 142.612 5.8981V11.7074H141.104C139.734 11.7074 138.707 12.007 138.022 12.6061C137.338 13.1838 136.995 14.2108 136.995 15.6872V24H131.507V6.09067H136.995V9.07556Z" fill="white"/>
<path d="M165.404 58.708H156.995L155.647 62.6878H149.902L158.055 40.1567H164.41L172.562 62.6878H166.753L165.404 58.708ZM163.992 54.4714L161.2 46.2228L158.44 54.4714H163.992Z" fill="white"/>
<path d="M148.624 40.1567V44.5538H142.655V62.6878H137.166V44.5538H131.196V40.1567H148.624Z" fill="white"/>
<path d="M122.609 58.4512H129.798V62.6878H117.12V40.1567H122.609V58.4512Z" fill="white"/>
<path d="M99.8827 40.1567V53.6369C99.8827 54.9849 100.214 56.0227 100.878 56.7502C101.541 57.4776 102.515 57.8414 103.798 57.8414C105.082 57.8414 106.066 57.4776 106.751 56.7502C107.436 56.0227 107.778 54.9849 107.778 53.6369V40.1567H113.267V53.6048C113.267 55.6161 112.839 57.3172 111.983 58.708C111.127 60.0988 109.971 61.1472 108.516 61.8533C107.083 62.5595 105.478 62.9125 103.702 62.9125C101.926 62.9125 100.332 62.5701 98.9198 61.8854C97.529 61.1793 96.4271 60.1309 95.614 58.7401C94.8009 57.3279 94.3943 55.6161 94.3943 53.6048V40.1567H99.8827Z" fill="white"/>
<path d="M82.8966 62.9124C81.249 62.9124 79.7726 62.6449 78.4674 62.11C77.1622 61.5751 76.1137 60.7834 75.3221 59.7349C74.5518 58.6865 74.1452 57.4241 74.1024 55.9477H79.9438C80.0294 56.7822 80.3183 57.4241 80.8104 57.8734C81.3025 58.3013 81.9444 58.5153 82.7361 58.5153C83.5492 58.5153 84.1911 58.3334 84.6619 57.9697C85.1326 57.5845 85.368 57.0603 85.368 56.397C85.368 55.8407 85.1754 55.3806 84.7902 55.0169C84.4265 54.6532 83.9665 54.3536 83.4101 54.1182C82.8752 53.8829 82.1049 53.6154 81.0993 53.3158C79.6443 52.8665 78.4567 52.4172 77.5366 51.9678C76.6166 51.5185 75.8249 50.8552 75.1616 49.9779C74.4983 49.1006 74.1666 47.9559 74.1666 46.5437C74.1666 44.4468 74.9262 42.8099 76.4454 41.633C77.9646 40.4348 79.9438 39.8357 82.3831 39.8357C84.8651 39.8357 86.8658 40.4348 88.3849 41.633C89.9041 42.8099 90.7172 44.4575 90.8242 46.5758H84.8865C84.8437 45.8483 84.5763 45.2812 84.0841 44.8747C83.592 44.4468 82.9608 44.2328 82.1905 44.2328C81.5272 44.2328 80.9923 44.4147 80.5857 44.7784C80.1792 45.1208 79.9759 45.6236 79.9759 46.2869C79.9759 47.0144 80.3183 47.5814 81.003 47.988C81.6877 48.3945 82.7575 48.8332 84.2125 49.3039C85.6675 49.796 86.8444 50.2668 87.743 50.7161C88.6631 51.1654 89.4548 51.818 90.1181 52.6739C90.7814 53.5298 91.1131 54.6318 91.1131 55.9798C91.1131 57.2636 90.7814 58.4297 90.1181 59.4782C89.4762 60.5266 88.5347 61.3611 87.2937 61.9816C86.0527 62.6022 84.587 62.9124 82.8966 62.9124Z" fill="white"/>
<path d="M70.766 62.6878H65.2776L56.0983 48.7904V62.6878H50.61V40.1567H56.0983L65.2776 54.1183V40.1567H70.766V62.6878Z" fill="white"/>
<path d="M0 51.3901C0 49.1648 0.481434 47.1856 1.4443 45.4524C2.40717 43.6979 3.74448 42.3392 5.45625 41.3763C7.18941 40.392 9.14724 39.8999 11.3297 39.8999C14.0044 39.8999 16.2939 40.606 18.1982 42.0182C20.1025 43.4304 21.3757 45.3562 22.0176 47.7954H15.9836C15.5343 46.8539 14.8923 46.1371 14.0579 45.645C13.2448 45.1529 12.314 44.9068 11.2655 44.9068C9.57518 44.9068 8.20577 45.4952 7.15731 46.6721C6.10886 47.8489 5.58463 49.4216 5.58463 51.3901C5.58463 53.3586 6.10886 54.9313 7.15731 56.1082C8.20577 57.285 9.57518 57.8734 11.2655 57.8734C12.314 57.8734 13.2448 57.6274 14.0579 57.1352C14.8923 56.6431 15.5343 55.9263 15.9836 54.9848H22.0176C21.3757 57.4241 20.1025 59.3498 18.1982 60.762C16.2939 62.1528 14.0044 62.8482 11.3297 62.8482C9.14724 62.8482 7.18941 62.3668 5.45625 61.4039C3.74448 60.4197 2.40717 59.061 1.4443 57.3278C0.481434 55.5946 0 53.6154 0 51.3901Z" fill="white"/>
<path fill-rule="evenodd" clip-rule="evenodd" d="M27.9109 52.9193C27.9109 50.6677 28.8053 48.5084 30.3974 46.9162C31.9896 45.3241 34.1489 44.4297 36.4005 44.4297C38.6522 44.4297 40.8115 45.3241 42.4037 46.9162C43.9958 48.5084 44.8902 50.6677 44.8902 52.9193C44.8902 55.1709 43.9958 57.3303 42.4037 58.9225C40.8115 60.5146 38.6522 61.409 36.4005 61.409C34.1489 61.409 31.9896 60.5146 30.3974 58.9225C28.8053 57.3303 27.9109 55.1709 27.9109 52.9193ZM36.4005 40.1848C34.3964 40.1846 32.4204 40.6574 30.6334 41.5648C28.8464 42.4721 27.2988 43.7885 26.1164 45.4068C24.9341 47.0251 24.1504 48.8996 23.8291 50.8779C23.5078 52.8562 23.658 54.8823 24.2674 56.7916C24.8768 58.7009 25.9283 60.4394 27.3363 61.8657C28.7443 63.292 30.4691 64.3658 32.3704 64.9998C34.2716 65.6339 36.2957 65.8102 38.2779 65.5145C40.2602 65.2188 42.1447 64.4593 43.7781 63.298L49.7569 69.2768C50.1572 69.6635 50.6934 69.8774 51.2499 69.8725C51.8063 69.8677 52.3387 69.6445 52.7322 69.251C53.1257 68.8575 53.3489 68.3251 53.3538 67.7686C53.3586 67.2122 53.1447 66.676 52.758 66.2757L46.7813 60.299C48.136 58.3938 48.9402 56.1525 49.1056 53.8207C49.2711 51.4888 48.7915 49.1564 47.7194 47.0791C46.6472 45.0017 45.024 43.2595 43.0275 42.0435C41.031 40.8274 38.7383 40.1844 36.4005 40.1848Z" fill="white"/>
<path d="M36.3476 42.5259C39.0766 42.5259 41.6939 43.61 43.6236 45.5397C45.5534 47.4694 46.6375 50.0867 46.6375 52.8157C46.6375 55.5448 45.5534 58.162 43.6236 60.0917C41.6939 62.0215 39.0766 63.1056 36.3476 63.1056C33.6186 63.1056 31.0013 62.0215 29.0716 60.0917C27.1419 58.162 26.0578 55.5448 26.0578 52.8157C26.0578 50.0867 27.1419 47.4694 29.0716 45.5397C31.0013 43.61 33.6186 42.5259 36.3476 42.5259ZM36.3476 45.0983C34.3008 45.0983 32.3379 45.9114 30.8906 47.3587C29.4433 48.806 28.6302 50.7689 28.6302 52.8157C28.6302 54.8625 29.4433 56.8254 30.8906 58.2727C32.3379 59.72 34.3008 60.5331 36.3476 60.5331C38.3944 60.5331 40.3573 59.72 41.8046 58.2727C43.2519 56.8254 44.065 54.8625 44.065 52.8157C44.065 50.7689 43.2519 48.806 41.8046 47.3587C40.3573 45.9114 38.3944 45.0983 36.3476 45.0983ZM36.3476 47.0277L38.048 50.4748L41.8527 51.0279L39.1001 53.7097L39.7497 57.4989L36.3476 55.7097L32.9455 57.4976L33.5951 53.7097L30.8425 51.0266L34.6472 50.4735L36.3476 47.0277Z" fill="#62E887"/>
<rect y="30.918" width="172.562" height="2" fill="#62E887"/>
</svg>
